<?xml version="1.0" encoding="UTF-8"?>
<!DOCTYPE svg PUBLIC "-//W3C//DTD SVG 1.1//EN" "http://www.w3.org/Graphics/SVG/1.1/DTD/svg11.dtd">
<svg xmlns="http://www.w3.org/2000/svg" version="1.1" width="450px" height="225px" style="shape-rendering:geometricPrecision; text-rendering:geometricPrecision; image-rendering:optimizeQuality; fill-rule:evenodd; clip-rule:evenodd" xmlns:xlink="http://www.w3.org/1999/xlink">
<g><path style="opacity:0.651" fill="#faa3a1" d="M 133.5,77.5 C 135.858,79.5293 138.192,81.5293 140.5,83.5C 136.911,82.9078 134.578,80.9078 133.5,77.5 Z"/></g>
<g><path style="opacity:0.263" fill="#fbd4d4" d="M 133.5,77.5 C 131.589,78.075 129.922,79.075 128.5,80.5C 128.859,78.629 129.859,77.129 131.5,76C 132.816,75.4719 133.483,75.9719 133.5,77.5 Z"/></g>
<g><path style="opacity:1" fill="#ed2424" d="M 133.5,77.5 C 134.578,80.9078 136.911,82.9078 140.5,83.5C 142.046,85.9305 144.379,87.2639 147.5,87.5C 147.833,87.5 148.167,87.5 148.5,87.5C 148.62,88.5862 149.287,89.2528 150.5,89.5C 153.115,90.2692 155.781,90.6025 158.5,90.5C 158.918,91.2216 159.584,91.7216 160.5,92C 158.833,92.3333 157.167,92.6667 155.5,93C 155.833,93.3333 156.167,93.6667 156.5,94C 153.69,95.0116 151.024,96.1783 148.5,97.5C 148.389,96.8826 148.056,96.3826 147.5,96C 144.304,95.1955 141.304,95.3622 138.5,96.5C 136.847,96.6596 135.514,97.3263 134.5,98.5C 133.833,98.5 133.5,98.8333 133.5,99.5C 132.778,100.551 131.778,101.218 130.5,101.5C 130.784,99.5853 130.451,97.9187 129.5,96.5C 126.167,95.1667 122.833,95.1667 119.5,96.5C 116.796,96.6696 115.129,98.0029 114.5,100.5C 110.323,100.071 106.323,99.0705 102.5,97.5C 102.5,95.1667 102.5,92.8333 102.5,90.5C 106.375,90.6436 110.208,90.3102 114,89.5C 115.376,89.3158 116.209,88.6491 116.5,87.5C 119.089,87.539 121.089,86.539 122.5,84.5C 125.198,84.1551 127.198,82.8218 128.5,80.5C 129.922,79.075 131.589,78.075 133.5,77.5 Z"/></g>
<g><path style="opacity:0.259" fill="#fbd1d0" d="M 128.5,80.5 C 127.198,82.8218 125.198,84.1551 122.5,84.5C 124.147,82.6736 126.147,81.3403 128.5,80.5 Z"/></g>
<g><path style="opacity:0.161" fill="#fbd5d4" d="M 122.5,84.5 C 121.089,86.539 119.089,87.539 116.5,87.5C 118.181,85.9925 120.181,84.9925 122.5,84.5 Z"/></g>
<g><path style="opacity:0.133" fill="#fcbebb" d="M 140.5,83.5 C 143.132,84.472 145.465,85.8053 147.5,87.5C 144.379,87.2639 142.046,85.9305 140.5,83.5 Z"/></g>
<g><path style="opacity:0.435" fill="#fcb4b2" d="M 116.5,87.5 C 116.209,88.6491 115.376,89.3158 114,89.5C 110.208,90.3102 106.375,90.6436 102.5,90.5C 107.048,89.5087 111.715,88.5087 116.5,87.5 Z"/></g>
<g><path style="opacity:0.267" fill="#fbbdbb" d="M 148.5,87.5 C 153.285,88.5087 157.952,89.5087 162.5,90.5C 161.167,90.5 159.833,90.5 158.5,90.5C 155.781,90.6025 153.115,90.2692 150.5,89.5C 149.287,89.2528 148.62,88.5862 148.5,87.5 Z"/></g>
<g><path style="opacity:0.286" fill="#c2c0c0" d="M 162.5,90.5 C 163.653,96.3188 163.819,102.319 163,108.5C 162.722,109.416 162.222,110.082 161.5,110.5C 162.165,104.523 162.498,98.523 162.5,92.5C 162.5,91.8333 162.5,91.1667 162.5,90.5 Z"/></g>
<g><path style="opacity:0.999" fill="#c81d1d" d="M 158.5,90.5 C 159.833,90.5 161.167,90.5 162.5,90.5C 162.5,91.1667 162.5,91.8333 162.5,92.5C 161.833,92.5 161.5,92.8333 161.5,93.5C 159.273,95.6068 157.273,97.9401 155.5,100.5C 153.203,102.294 151.037,104.294 149,106.5C 148.502,103.518 148.335,100.518 148.5,97.5C 151.024,96.1783 153.69,95.0116 156.5,94C 156.167,93.6667 155.833,93.3333 155.5,93C 157.167,92.6667 158.833,92.3333 160.5,92C 159.584,91.7216 158.918,91.2216 158.5,90.5 Z"/></g>
<g><path style="opacity:0.012" fill="#fce3e3" d="M 138.5,96.5 C 137.713,98.1042 136.38,98.7709 134.5,98.5C 135.514,97.3263 136.847,96.6596 138.5,96.5 Z"/></g>
<g><path style="opacity:0.055" fill="#c9b2b2" d="M 161.5,93.5 C 160.617,96.7043 158.95,99.3709 156.5,101.5C 156.5,100.833 156.167,100.5 155.5,100.5C 157.273,97.9401 159.273,95.6068 161.5,93.5 Z"/></g>
<g><path style="opacity:0.292" fill="#fac7c8" d="M 185.5,99.5 C 182.302,98.9644 179.635,99.631 177.5,101.5C 176.596,100.791 176.263,99.791 176.5,98.5C 179.713,98.19 182.713,98.5233 185.5,99.5 Z"/></g>
<g><path style="opacity:0.29" fill="#fac6c6" d="M 204.5,102.5 C 204.5,101.5 204.5,100.5 204.5,99.5C 201.941,99.1984 199.607,99.5318 197.5,100.5C 197.167,100.5 196.833,100.5 196.5,100.5C 198.988,98.6122 201.988,97.9455 205.5,98.5C 205.768,100.099 205.434,101.432 204.5,102.5 Z"/></g>
<g><path style="opacity:0.541" fill="#fbb2b0" d="M 240.5,101.5 C 233.62,98.2278 227.286,98.8945 221.5,103.5C 221.511,101.983 222.177,100.816 223.5,100C 229.587,96.7692 235.254,97.2692 240.5,101.5 Z"/></g>
<g><path style="opacity:0.475" fill="#fab4b4" d="M 282.5,101.5 C 276.472,98.9015 270.472,98.9015 264.5,101.5C 265.058,100.21 266.058,99.3768 267.5,99C 271.5,98.3333 275.5,98.3333 279.5,99C 280.942,99.3768 281.942,100.21 282.5,101.5 Z"/></g>
<g><path style="opacity:0.284" fill="#fac7c7" d="M 292.5,99.5 C 295.304,98.3622 298.304,98.1955 301.5,99C 302.252,99.6708 302.586,100.504 302.5,101.5C 301.833,101.167 301.167,100.833 300.5,100.5C 298.052,99.5269 295.385,99.1936 292.5,99.5 Z"/></g>
<g><path style="opacity:1" fill="#c2181a" d="M 102.5,97.5 C 106.323,99.0705 110.323,100.071 114.5,100.5C 114.34,102.199 114.506,103.866 115,105.5C 116.145,106.684 117.312,106.684 118.5,105.5C 119.483,109.298 119.817,113.298 119.5,117.5C 115.5,117.5 111.5,117.5 107.5,117.5C 106.391,117.443 105.391,117.11 104.5,116.5C 103.833,110.167 103.167,103.833 102.5,97.5 Z"/></g>
<g><path style="opacity:0.798" fill="#f35e5e" d="M 197.5,100.5 C 199.607,99.5318 201.941,99.1984 204.5,99.5C 204.5,100.5 204.5,101.5 204.5,102.5C 204.167,102.5 203.833,102.5 203.5,102.5C 202.082,100.692 200.082,100.025 197.5,100.5 Z"/></g>
<g><path style="opacity:0.161" fill="#f0b0ae" d="M 119.5,96.5 C 117.771,97.6407 116.771,99.3074 116.5,101.5C 116.64,103.03 117.307,104.03 118.5,104.5C 118.5,104.833 118.5,105.167 118.5,105.5C 117.312,106.684 116.145,106.684 115,105.5C 114.506,103.866 114.34,102.199 114.5,100.5C 115.129,98.0029 116.796,96.6696 119.5,96.5 Z"/></g>
<g><path style="opacity:0.162" fill="#fcd4d5" d="M 215.5,127.5 C 215.5,127.167 215.5,126.833 215.5,126.5C 215.5,117.5 215.5,108.5 215.5,99.5C 212.941,99.1984 210.607,99.5318 208.5,100.5C 208.167,100.5 207.833,100.5 207.5,100.5C 209.988,98.6122 212.988,97.9455 216.5,98.5C 216.827,108.348 216.494,118.014 215.5,127.5 Z"/></g>
<g><path style="opacity:0.332" fill="#aaa9aa" d="M 322.5,100.5 C 323.058,99.2101 324.058,98.3768 325.5,98C 328.482,97.502 331.482,97.3354 334.5,97.5C 334.5,107.5 334.5,117.5 334.5,127.5C 330.685,128.082 327.351,127.248 324.5,125C 325.476,118.924 325.81,112.758 325.5,106.5C 324.167,106.5 322.833,106.5 321.5,106.5C 321.205,104.265 321.539,102.265 322.5,100.5 Z"/></g>
<g><path style="opacity:1" fill="#030405" d="M 333.5,100.5 C 332.507,108.65 332.174,116.983 332.5,125.5C 330.833,125.5 329.167,125.5 327.5,125.5C 327.5,118.5 327.5,111.5 327.5,104.5C 326.209,104.263 325.209,104.596 324.5,105.5C 322.744,104.448 322.077,102.781 322.5,100.5C 326.301,99.2854 329.967,99.2854 333.5,100.5 Z"/></g>
<g><path style="opacity:0.699" fill="#4c4c4c" d="M 347.5,99.5 C 348.493,108.318 348.827,117.318 348.5,126.5C 345.941,126.802 343.607,126.468 341.5,125.5C 343.5,125.5 345.5,125.5 347.5,125.5C 347.5,116.833 347.5,108.167 347.5,99.5 Z"/></g>
<g><path style="opacity:0.105" fill="#e0e0e0" d="M 340.5,98.5 C 343.23,97.1834 346.063,97.1834 349,98.5C 350.484,107.979 350.317,117.312 348.5,126.5C 348.827,117.318 348.493,108.318 347.5,99.5C 345.393,98.5318 343.059,98.1984 340.5,98.5 Z"/></g>
<g><path style="opacity:0.272" fill="#f2c1c1" d="M 119.5,96.5 C 122.833,95.1667 126.167,95.1667 129.5,96.5C 128.874,103.584 129.541,110.25 131.5,116.5C 130.791,117.404 129.791,117.737 128.5,117.5C 128.5,110.5 128.5,103.5 128.5,96.5C 125.5,96.5 122.5,96.5 119.5,96.5 Z"/></g>
<g><path style="opacity:0.76" fill="#f24d4e" d="M 208.5,100.5 C 210.607,99.5318 212.941,99.1984 215.5,99.5C 215.5,108.5 215.5,117.5 215.5,126.5C 212.941,126.802 210.607,126.468 208.5,125.5C 210.5,125.5 212.5,125.5 214.5,125.5C 214.5,117.167 214.5,108.833 214.5,100.5C 212.5,100.5 210.5,100.5 208.5,100.5 Z"/></g>
<g><path style="opacity:1" fill="#050507" d="M 347.5,99.5 C 347.5,108.167 347.5,116.833 347.5,125.5C 345.5,125.5 343.5,125.5 341.5,125.5C 341.83,118.468 341.497,111.468 340.5,104.5C 338.67,106.027 337.67,105.527 337.5,103C 337.755,101.674 338.422,100.674 339.5,100C 342.146,99.5026 344.813,99.3359 347.5,99.5 Z"/></g>
<g><path style="opacity:0.712" fill="#da5c5e" d="M 129.5,96.5 C 130.451,97.9187 130.784,99.5853 130.5,101.5C 129.897,106.619 130.564,111.285 132.5,115.5C 132.5,115.833 132.5,116.167 132.5,116.5C 132.167,116.5 131.833,116.5 131.5,116.5C 129.541,110.25 128.874,103.584 129.5,96.5 Z"/></g>
<g><path style="opacity:0.404" fill="#eba4a4" d="M 134.5,98.5 C 135.432,99.6869 135.432,101.02 134.5,102.5C 134.747,103.713 135.414,104.38 136.5,104.5C 135.791,105.404 134.791,105.737 133.5,105.5C 133.5,103.5 133.5,101.5 133.5,99.5C 133.5,98.8333 133.833,98.5 134.5,98.5 Z"/></g>
<g><path style="opacity:0.184" fill="#fccecd" d="M 177.5,101.5 C 178.931,102.78 179.598,104.447 179.5,106.5C 178.069,105.22 177.402,103.553 177.5,101.5 Z"/></g>
<g><path style="opacity:0.396" fill="#f8adad" d="M 207.5,100.5 C 207.833,100.5 208.167,100.5 208.5,100.5C 208.5,108.833 208.5,117.167 208.5,125.5C 210.607,126.468 212.941,126.802 215.5,126.5C 215.5,126.833 215.5,127.167 215.5,127.5C 213.198,128.822 210.865,128.822 208.5,127.5C 207.502,118.525 207.168,109.525 207.5,100.5 Z"/></g>
<g><path style="opacity:1" fill="#ed1d1f" d="M 208.5,100.5 C 210.5,100.5 212.5,100.5 214.5,100.5C 214.5,108.833 214.5,117.167 214.5,125.5C 212.5,125.5 210.5,125.5 208.5,125.5C 208.5,117.167 208.5,108.833 208.5,100.5 Z"/></g>
<g><path style="opacity:0.119" fill="#fcbcba" d="M 245.5,98.5 C 248.777,98.2161 251.943,98.5495 255,99.5C 255.667,108.5 255.667,117.5 255,126.5C 252.447,128.729 249.614,129.062 246.5,127.5C 245.502,117.856 245.168,108.19 245.5,98.5 Z"/></g>
<g><path style="opacity:0.271" fill="#facece" d="M 264.5,101.5 C 263.833,102.833 262.833,103.833 261.5,104.5C 261.5,102.5 262.5,101.5 264.5,101.5 Z"/></g>
<g><path style="opacity:0.634" fill="#f46060" d="M 292.5,99.5 C 295.385,99.1936 298.052,99.5269 300.5,100.5C 298.167,100.5 295.833,100.5 293.5,100.5C 293.5,108.833 293.5,117.167 293.5,125.5C 295.5,125.5 297.5,125.5 299.5,125.5C 297.393,126.468 295.059,126.802 292.5,126.5C 292.5,117.5 292.5,108.5 292.5,99.5 Z"/></g>
<g><path style="opacity:0.824" fill="#f15455" d="M 310.5,125.5 C 312.5,125.5 314.5,125.5 316.5,125.5C 316.5,117.167 316.5,108.833 316.5,100.5C 314.833,100.5 313.167,100.5 311.5,100.5C 311.827,105.214 311.493,109.88 310.5,114.5C 309.893,114.376 309.56,114.043 309.5,113.5C 310.486,109.03 310.819,104.363 310.5,99.5C 312.833,99.5 315.167,99.5 317.5,99.5C 317.5,108.5 317.5,117.5 317.5,126.5C 314.941,126.802 312.607,126.468 310.5,125.5 Z"/></g>
<g><path style="opacity:0.989" fill="#ed2223" d="M 247.5,99.5 C 249.5,99.5 251.5,99.5 253.5,99.5C 253.5,108.5 253.5,117.5 253.5,126.5C 251.5,126.5 249.5,126.5 247.5,126.5C 247.5,117.5 247.5,108.5 247.5,99.5 Z"/></g>
<g><path style="opacity:0.051" fill="#f2cac9" d="M 138.5,96.5 C 141.304,95.3622 144.304,95.1955 147.5,96C 148.056,96.3826 148.389,96.8826 148.5,97.5C 148.335,100.518 148.502,103.518 149,106.5C 151.037,104.294 153.203,102.294 155.5,100.5C 156.167,100.5 156.5,100.833 156.5,101.5C 156.672,102.492 156.338,103.158 155.5,103.5C 155.167,102.167 154.833,102.167 154.5,103.5C 153.833,103.5 153.5,103.833 153.5,104.5C 152.833,104.5 152.5,104.833 152.5,105.5C 151.5,105.833 150.833,106.5 150.5,107.5C 149.833,107.5 149.5,107.833 149.5,108.5C 148.504,108.586 147.671,108.252 147,107.5C 146.501,103.848 146.335,100.182 146.5,96.5C 143.833,96.5 141.167,96.5 138.5,96.5 Z"/></g>
<g><path style="opacity:0.027" fill="#fbd9d8" d="M 240.5,101.5 C 241.124,101.917 241.457,102.584 241.5,103.5C 241.253,104.713 240.586,105.38 239.5,105.5C 240.234,104.292 240.567,102.959 240.5,101.5 Z"/></g>
<g><path style="opacity:0.494" fill="#999999" d="M 154.5,103.5 C 154.833,103.5 155.167,103.5 155.5,103.5C 155.262,105.404 154.262,106.738 152.5,107.5C 152.5,106.833 152.5,106.167 152.5,105.5C 153.167,105.5 153.5,105.167 153.5,104.5C 154.167,104.5 154.5,104.167 154.5,103.5 Z"/></g>
<g><path style="opacity:0.459" fill="#faa9a8" d="M 284.5,103.5 C 286.262,104.262 287.262,105.596 287.5,107.5C 285.738,106.738 284.738,105.404 284.5,103.5 Z"/></g>
<g><path style="opacity:0.761" fill="#3b3b3b" d="M 333.5,100.5 C 333.5,109.167 333.5,117.833 333.5,126.5C 331.167,126.5 328.833,126.5 326.5,126.5C 327.128,119.087 326.461,112.087 324.5,105.5C 325.209,104.596 326.209,104.263 327.5,104.5C 327.5,111.5 327.5,118.5 327.5,125.5C 329.167,125.5 330.833,125.5 332.5,125.5C 332.174,116.983 332.507,108.65 333.5,100.5 Z"/></g>
<g><path style="opacity:0.631" fill="#d86565" d="M 120.5,118.5 C 115.968,118.818 111.634,118.485 107.5,117.5C 111.5,117.5 115.5,117.5 119.5,117.5C 119.817,113.298 119.483,109.298 118.5,105.5C 118.5,105.167 118.5,104.833 118.5,104.5C 118.56,103.957 118.893,103.624 119.5,103.5C 120.494,108.456 120.827,113.456 120.5,118.5 Z"/></g>
<g><path style="opacity:0.998" fill="#c41e1d" d="M 133.5,99.5 C 133.5,101.5 133.5,103.5 133.5,105.5C 134.791,105.737 135.791,105.404 136.5,104.5C 138.388,106.988 139.055,109.988 138.5,113.5C 136.302,113.875 134.302,114.542 132.5,115.5C 130.564,111.285 129.897,106.619 130.5,101.5C 131.778,101.218 132.778,100.551 133.5,99.5 Z"/></g>
<g><path style="opacity:0.306" fill="#fac2c1" d="M 185.5,99.5 C 187.097,101.848 188.097,104.514 188.5,107.5C 186.603,105.302 185.603,102.636 185.5,99.5 Z"/></g>
<g><path style="opacity:0.458" fill="#8a8b8b" d="M 340.5,98.5 C 343.059,98.1984 345.393,98.5318 347.5,99.5C 344.813,99.3359 342.146,99.5026 339.5,100C 338.422,100.674 337.755,101.674 337.5,103C 337.67,105.527 338.67,106.027 340.5,104.5C 341.497,111.468 341.83,118.468 341.5,125.5C 343.607,126.468 345.941,126.802 348.5,126.5C 346.052,127.473 343.385,127.806 340.5,127.5C 340.5,120.5 340.5,113.5 340.5,106.5C 339.167,106.5 337.833,106.5 336.5,106.5C 336.192,104.076 336.526,101.743 337.5,99.5C 338.417,98.8728 339.417,98.5394 340.5,98.5 Z"/></g>
<g><path style="opacity:0.243" fill="#fccbc9" d="M 203.5,102.5 C 203.833,102.5 204.167,102.5 204.5,102.5C 204.065,105.157 203.065,107.491 201.5,109.5C 201.767,107.035 202.434,104.701 203.5,102.5 Z"/></g>
<g><path style="opacity:0.114" fill="#fcdada" d="M 234.5,106.5 C 235.964,107.405 237.298,107.405 238.5,106.5C 237.298,107.405 235.964,107.405 234.5,106.5 Z"/></g>
<g><path style="opacity:0.212" fill="#f1cacb" d="M 136.5,104.5 C 137.209,103.596 138.209,103.263 139.5,103.5C 139.813,107.042 139.479,110.375 138.5,113.5C 139.055,109.988 138.388,106.988 136.5,104.5 Z"/></g>
<g><path style="opacity:0.302" fill="#c8c7c8" d="M 150.5,107.5 C 151.167,107.5 151.833,107.5 152.5,107.5C 151.5,109.167 150.167,110.5 148.5,111.5C 148.557,110.391 148.89,109.391 149.5,108.5C 150.167,108.5 150.5,108.167 150.5,107.5 Z"/></g>
<g><path style="opacity:0.141" fill="#fbbdbc" d="M 229.5,107.5 C 232.814,108.393 235.814,109.726 238.5,111.5C 235.997,110.916 233.497,110.249 231,109.5C 229.97,109.164 229.47,108.497 229.5,107.5 Z"/></g>
<g><path style="opacity:0.243" fill="#eeb1b1" d="M 102.5,90.5 C 102.5,92.8333 102.5,95.1667 102.5,97.5C 103.167,103.833 103.833,110.167 104.5,116.5C 102.891,113.851 102.057,110.851 102,107.5C 101.182,101.651 101.348,95.9846 102.5,90.5 Z"/></g>
<g><path style="opacity:0.314" fill="#fbc2c2" d="M 179.5,106.5 C 181.585,108.684 182.585,111.351 182.5,114.5C 180.733,112.208 179.733,109.542 179.5,106.5 Z"/></g>
<g><path style="opacity:0.38" fill="#fab3b2" d="M 221.5,103.5 C 221.186,107.532 222.519,110.865 225.5,113.5C 220.832,111.455 219.499,108.122 221.5,103.5 Z"/></g>
<g><path style="opacity:0.004" fill="#fcd6d5" d="M 238.5,111.5 C 240.5,111.5 241.5,112.5 241.5,114.5C 240.167,113.833 239.167,112.833 238.5,111.5 Z"/></g>
<g><path style="opacity:0.416" fill="#fac5c4" d="M 287.5,108.5 C 290.046,111.799 290.046,115.132 287.5,118.5C 287.5,115.167 287.5,111.833 287.5,108.5 Z"/></g>
<g><path style="opacity:1" fill="#101011" d="M 162.5,92.5 C 162.498,98.523 162.165,104.523 161.5,110.5C 161.5,111.167 161.5,111.833 161.5,112.5C 159.336,118.058 157.003,123.725 154.5,129.5C 152.75,130.659 151.75,132.326 151.5,134.5C 148.5,137.167 145.5,139.833 142.5,142.5C 142.351,141.448 142.517,140.448 143,139.5C 144.733,137.853 146.566,136.353 148.5,135C 144.689,135.083 141.355,134.25 138.5,132.5C 141.833,132.5 145.167,132.5 148.5,132.5C 148.5,125.5 148.5,118.5 148.5,111.5C 150.167,110.5 151.5,109.167 152.5,107.5C 154.262,106.738 155.262,105.404 155.5,103.5C 156.338,103.158 156.672,102.492 156.5,101.5C 158.95,99.3709 160.617,96.7043 161.5,93.5C 161.5,92.8333 161.833,92.5 162.5,92.5 Z"/></g>
<g><path style="opacity:0.989" fill="#ee2926" d="M 240.5,101.5 C 240.567,102.959 240.234,104.292 239.5,105.5C 239.5,106.167 239.167,106.5 238.5,106.5C 237.298,107.405 235.964,107.405 234.5,106.5C 234.209,105.351 233.376,104.684 232,104.5C 229.187,104.441 228.354,105.441 229.5,107.5C 229.47,108.497 229.97,109.164 231,109.5C 233.497,110.249 235.997,110.916 238.5,111.5C 239.167,112.833 240.167,113.833 241.5,114.5C 242.258,119.271 240.925,123.271 237.5,126.5C 237.167,126.5 236.833,126.5 236.5,126.5C 233.873,127.092 231.206,127.425 228.5,127.5C 227.209,127.737 226.209,127.404 225.5,126.5C 223.673,125.068 222.006,123.401 220.5,121.5C 222.288,120.717 223.288,119.384 223.5,117.5C 224.167,116.167 224.833,116.167 225.5,117.5C 225.756,119.776 227.09,120.943 229.5,121C 231.463,121.844 232.796,121.344 233.5,119.5C 234.885,118.053 234.552,117.053 232.5,116.5C 230.351,115.264 228.018,114.264 225.5,113.5C 222.519,110.865 221.186,107.532 221.5,103.5C 227.286,98.8945 233.62,98.2278 240.5,101.5 Z"/></g>
<g><path style="opacity:0.365" fill="#f9a8a7" d="M 234.5,106.5 C 232.344,104.882 230.677,105.216 229.5,107.5C 228.354,105.441 229.187,104.441 232,104.5C 233.376,104.684 234.209,105.351 234.5,106.5 Z"/></g>
<g><path style="opacity:0.525" fill="#fab2b1" d="M 261.5,104.5 C 258.037,112.493 259.37,119.493 265.5,125.5C 262.151,124.316 259.985,121.983 259,118.5C 258.333,114.833 258.333,111.167 259,107.5C 259.377,106.058 260.21,105.058 261.5,104.5 Z"/></g>
<g><path style="opacity:1" fill="#ed2423" d="M 300.5,100.5 C 301.167,100.833 301.833,101.167 302.5,101.5C 303.737,102.965 304.737,104.632 305.5,106.5C 305.427,108.027 306.094,109.027 307.5,109.5C 308.338,109.842 308.672,110.508 308.5,111.5C 308.328,112.492 308.662,113.158 309.5,113.5C 309.56,114.043 309.893,114.376 310.5,114.5C 311.493,109.88 311.827,105.214 311.5,100.5C 313.167,100.5 314.833,100.5 316.5,100.5C 316.5,108.833 316.5,117.167 316.5,125.5C 314.5,125.5 312.5,125.5 310.5,125.5C 309.046,123.563 307.379,121.897 305.5,120.5C 305.5,120.167 305.5,119.833 305.5,119.5C 305.13,116.733 303.796,114.733 301.5,113.5C 301.631,112.624 301.298,111.957 300.5,111.5C 299.507,116.12 299.173,120.786 299.5,125.5C 297.5,125.5 295.5,125.5 293.5,125.5C 293.5,117.167 293.5,108.833 293.5,100.5C 295.833,100.5 298.167,100.5 300.5,100.5 Z"/></g>
<g><path style="opacity:0.431" fill="#fabcbb" d="M 305.5,106.5 C 306.906,106.973 307.573,107.973 307.5,109.5C 306.094,109.027 305.427,108.027 305.5,106.5 Z"/></g>
<g><path style="opacity:0.133" fill="#f2c6c5" d="M 138.5,113.5 C 136.967,115.245 134.967,116.245 132.5,116.5C 132.5,116.167 132.5,115.833 132.5,115.5C 134.302,114.542 136.302,113.875 138.5,113.5 Z"/></g>
<g><path style="opacity:0.188" fill="#fbbfbd" d="M 225.5,113.5 C 228.018,114.264 230.351,115.264 232.5,116.5C 229.509,116.834 227.176,115.834 225.5,113.5 Z"/></g>
<g><path style="opacity:0.447" fill="#fbaeaf" d="M 301.5,113.5 C 300.674,117.982 300.174,122.649 300,127.5C 298.769,128.108 297.436,128.441 296,128.5C 294.319,128.392 293.152,127.725 292.5,126.5C 295.059,126.802 297.393,126.468 299.5,125.5C 299.173,120.786 299.507,116.12 300.5,111.5C 301.298,111.957 301.631,112.624 301.5,113.5 Z"/></g>
<g><path style="opacity:0.106" fill="#fbc8c7" d="M 201.5,109.5 C 201.448,112.346 200.448,114.68 198.5,116.5C 198.759,113.728 199.759,111.395 201.5,109.5 Z"/></g>
<g><path style="opacity:1" fill="#ee2a27" d="M 185.5,99.5 C 185.603,102.636 186.603,105.302 188.5,107.5C 188.5,107.833 188.5,108.167 188.5,108.5C 188.993,110.806 189.326,113.139 189.5,115.5C 190.5,115.5 191.5,115.5 192.5,115.5C 192.517,113.435 192.85,111.435 193.5,109.5C 195.472,106.916 196.472,103.916 196.5,100.5C 196.833,100.5 197.167,100.5 197.5,100.5C 200.082,100.025 202.082,100.692 203.5,102.5C 202.434,104.701 201.767,107.035 201.5,109.5C 199.759,111.395 198.759,113.728 198.5,116.5C 198.737,117.791 198.404,118.791 197.5,119.5C 196.069,120.78 195.402,122.447 195.5,124.5C 192.5,127.167 189.5,127.167 186.5,124.5C 186.5,124.167 186.5,123.833 186.5,123.5C 186.241,120.728 185.241,118.395 183.5,116.5C 182.662,116.158 182.328,115.492 182.5,114.5C 182.585,111.351 181.585,108.684 179.5,106.5C 179.598,104.447 178.931,102.78 177.5,101.5C 179.635,99.631 182.302,98.9644 185.5,99.5 Z"/></g>
<g><path style="opacity:0.294" fill="#fbc6c5" d="M 188.5,108.5 C 189.793,109.842 190.626,111.509 191,113.5C 191.374,111.509 192.207,109.842 193.5,108.5C 193.5,108.833 193.5,109.167 193.5,109.5C 192.85,111.435 192.517,113.435 192.5,115.5C 191.5,115.5 190.5,115.5 189.5,115.5C 189.326,113.139 188.993,110.806 188.5,108.5 Z"/></g>
<g><path style="opacity:0.871" fill="#fa938d" d="M 196.5,100.5 C 196.472,103.916 195.472,106.916 193.5,109.5C 193.5,109.167 193.5,108.833 193.5,108.5C 193.733,105.458 194.733,102.792 196.5,100.5 Z"/></g>
<g><path style="opacity:0.118" fill="#fba9a6" d="M 301.5,113.5 C 303.796,114.733 305.13,116.733 305.5,119.5C 303.684,117.882 302.351,115.882 301.5,113.5 Z"/></g>
<g><path style="opacity:0.316" fill="#f0c7c7" d="M 104.5,116.5 C 105.391,117.11 106.391,117.443 107.5,117.5C 111.634,118.485 115.968,118.818 120.5,118.5C 116.019,119.648 111.352,119.815 106.5,119C 105.244,118.583 104.577,117.75 104.5,116.5 Z"/></g>
<g><path style="opacity:0.169" fill="#fcbcba" d="M 232.5,116.5 C 234.552,117.053 234.885,118.053 233.5,119.5C 233.443,118.391 233.11,117.391 232.5,116.5 Z"/></g>
<g><path style="opacity:0.084" fill="#fcb4b1" d="M 225.5,117.5 C 227.913,119.051 230.579,119.717 233.5,119.5C 232.796,121.344 231.463,121.844 229.5,121C 227.09,120.943 225.756,119.776 225.5,117.5 Z"/></g>
<g><path style="opacity:0.22" fill="#c3c3c4" d="M 148.5,111.5 C 148.5,118.5 148.5,125.5 148.5,132.5C 145.167,132.5 141.833,132.5 138.5,132.5C 138.824,128.445 138.491,124.445 137.5,120.5C 136.583,121.127 135.583,121.461 134.5,121.5C 135.643,119.5 137.143,118.833 139,119.5C 139.499,123.486 139.666,127.486 139.5,131.5C 141.833,131.5 144.167,131.5 146.5,131.5C 145.874,124.416 146.541,117.75 148.5,111.5 Z"/></g>
<g><path style="opacity:0.145" fill="#fabab8" d="M 183.5,116.5 C 185.241,118.395 186.241,120.728 186.5,123.5C 184.552,121.68 183.552,119.346 183.5,116.5 Z"/></g>
<g><path style="opacity:0.149" fill="#fdc2c0" d="M 223.5,117.5 C 223.288,119.384 222.288,120.717 220.5,121.5C 222.006,123.401 223.673,125.068 225.5,126.5C 218.6,124.583 217.933,121.583 223.5,117.5 Z"/></g>
<g><path style="opacity:0.271" fill="#fbc6c4" d="M 287.5,118.5 C 287.25,120.674 286.25,122.341 284.5,123.5C 284.75,121.326 285.75,119.659 287.5,118.5 Z"/></g>
<g><path style="opacity:0.173" fill="#a9a8a9" d="M 161.5,112.5 C 160.893,119.016 158.559,124.683 154.5,129.5C 157.003,123.725 159.336,118.058 161.5,112.5 Z"/></g>
<g><path style="opacity:0.184" fill="#fbcdcc" d="M 197.5,119.5 C 197.598,121.553 196.931,123.22 195.5,124.5C 195.402,122.447 196.069,120.78 197.5,119.5 Z"/></g>
<g><path style="opacity:0.216" fill="#fbbcbb" d="M 241.5,114.5 C 242.634,116.966 242.801,119.633 242,122.5C 241.252,124.751 239.752,126.084 237.5,126.5C 240.925,123.271 242.258,119.271 241.5,114.5 Z"/></g>
<g><path style="opacity:0.986" fill="#ed2624" d="M 282.5,101.5 C 283.5,101.833 284.167,102.5 284.5,103.5C 284.738,105.404 285.738,106.738 287.5,107.5C 287.5,107.833 287.5,108.167 287.5,108.5C 287.5,111.833 287.5,115.167 287.5,118.5C 285.75,119.659 284.75,121.326 284.5,123.5C 284.167,123.5 283.833,123.5 283.5,123.5C 279.56,125.148 275.56,126.482 271.5,127.5C 269.898,125.926 267.898,125.259 265.5,125.5C 259.37,119.493 258.037,112.493 261.5,104.5C 262.833,103.833 263.833,102.833 264.5,101.5C 270.472,98.9015 276.472,98.9015 282.5,101.5 Z M 275.5,106.5 C 276.795,107.488 278.128,108.488 279.5,109.5C 279.632,112.57 279.299,115.57 278.5,118.5C 274.303,120.302 270.636,119.635 267.5,116.5C 266.532,110.143 269.198,106.81 275.5,106.5 Z"/></g>
<g><path style="opacity:0.192" fill="#fab3b2" d="M 267.5,116.5 C 270.636,119.635 274.303,120.302 278.5,118.5C 278.389,119.117 278.056,119.617 277.5,120C 274.833,120.667 272.167,120.667 269.5,120C 268.177,119.184 267.511,118.017 267.5,116.5 Z"/></g>
<g><path style="opacity:0.153" fill="#f9bcbb" d="M 279.5,109.5 C 280.634,111.966 280.801,114.633 280,117.5C 279.617,118.056 279.117,118.389 278.5,118.5C 279.299,115.57 279.632,112.57 279.5,109.5 Z"/></g>
<g><path style="opacity:0.192" fill="#fcc4c3" d="M 275.5,106.5 C 269.198,106.81 266.532,110.143 267.5,116.5C 265.614,112.261 266.614,108.761 270.5,106C 272.387,105.22 274.054,105.387 275.5,106.5 Z"/></g>
<g><path style="opacity:1" fill="#0d0e0f" d="M 138.5,132.5 C 141.355,134.25 144.689,135.083 148.5,135C 146.566,136.353 144.733,137.853 143,139.5C 142.517,140.448 142.351,141.448 142.5,142.5C 141.662,142.842 141.328,143.508 141.5,144.5C 139.368,144.554 138.035,145.554 137.5,147.5C 137.167,147.5 136.833,147.5 136.5,147.5C 133.833,148.833 131.167,148.833 128.5,147.5C 126.853,145.674 124.853,144.34 122.5,143.5C 118.805,139.474 115.138,135.474 111.5,131.5C 111.196,130.85 110.863,130.183 110.5,129.5C 113.788,128.555 117.121,127.888 120.5,127.5C 120.5,128.833 120.5,130.167 120.5,131.5C 123.287,132.477 126.287,132.81 129.5,132.5C 129.336,129.813 129.503,127.146 130,124.5C 131.878,123.947 133.378,122.947 134.5,121.5C 135.583,121.461 136.583,121.127 137.5,120.5C 138.491,124.445 138.824,128.445 138.5,132.5 Z"/></g>
<g><path style="opacity:0.725" fill="#f88f8d" d="M 265.5,125.5 C 267.898,125.259 269.898,125.926 271.5,127.5C 270.833,127.5 270.167,127.5 269.5,127.5C 267.847,127.34 266.514,126.674 265.5,125.5 Z"/></g>
<g><path style="opacity:0.279" fill="#bab9ba" d="M 134.5,121.5 C 133.378,122.947 131.878,123.947 130,124.5C 129.503,127.146 129.336,129.813 129.5,132.5C 126.287,132.81 123.287,132.477 120.5,131.5C 123.167,131.5 125.833,131.5 128.5,131.5C 128.336,128.813 128.503,126.146 129,123.5C 130.725,122.536 132.559,121.869 134.5,121.5 Z"/></g>
<g><path style="opacity:0.473" fill="#fbb8b7" d="M 186.5,124.5 C 189.5,127.167 192.5,127.167 195.5,124.5C 194.538,128.146 192.205,129.313 188.5,128C 187.177,127.184 186.511,126.017 186.5,124.5 Z"/></g>
<g><path style="opacity:0.427" fill="#febab7" d="M 283.5,123.5 C 279.798,128.213 275.131,129.546 269.5,127.5C 270.167,127.5 270.833,127.5 271.5,127.5C 275.56,126.482 279.56,125.148 283.5,123.5 Z"/></g>
<g><path style="opacity:0.464" fill="#fabebd" d="M 305.5,120.5 C 307.379,121.897 309.046,123.563 310.5,125.5C 312.607,126.468 314.941,126.802 317.5,126.5C 317.5,117.5 317.5,108.5 317.5,99.5C 315.167,99.5 312.833,99.5 310.5,99.5C 310.819,104.363 310.486,109.03 309.5,113.5C 308.662,113.158 308.328,112.492 308.5,111.5C 309.485,107.366 309.818,103.032 309.5,98.5C 312.5,98.5 315.5,98.5 318.5,98.5C 318.832,108.19 318.498,117.856 317.5,127.5C 311.137,129.505 307.137,127.171 305.5,120.5 Z"/></g>
<g><path style="opacity:0.018" fill="#fee8e8" d="M 236.5,126.5 C 234.007,128.584 231.34,128.917 228.5,127.5C 231.206,127.425 233.873,127.092 236.5,126.5 Z"/></g>
<g><path style="opacity:0.153" fill="#cdcdcd" d="M 120.5,127.5 C 117.121,127.888 113.788,128.555 110.5,129.5C 110.863,130.183 111.196,130.85 111.5,131.5C 109.824,130.817 109.157,129.483 109.5,127.5C 113.316,126.38 116.983,126.38 120.5,127.5 Z"/></g>
<g><path style="opacity:0.318" fill="#acabac" d="M 154.5,129.5 C 154.25,131.674 153.25,133.341 151.5,134.5C 151.75,132.326 152.75,130.659 154.5,129.5 Z"/></g>
<g><path style="opacity:0.239" fill="#b0b0b0" d="M 111.5,131.5 C 115.138,135.474 118.805,139.474 122.5,143.5C 117.444,140.777 113.777,136.777 111.5,131.5 Z"/></g>
<g><path style="opacity:0.075" fill="#c2c2c3" d="M 151.5,134.5 C 149.188,138.812 145.855,142.145 141.5,144.5C 141.328,143.508 141.662,142.842 142.5,142.5C 145.5,139.833 148.5,137.167 151.5,134.5 Z"/></g>
<g><path style="opacity:0.275" fill="#a6a7a7" d="M 122.5,143.5 C 124.853,144.34 126.853,145.674 128.5,147.5C 125.802,147.155 123.802,145.822 122.5,143.5 Z"/></g>
<g><path style="opacity:0.071" fill="#cdcdce" d="M 141.5,144.5 C 140.564,145.974 139.23,146.974 137.5,147.5C 138.035,145.554 139.368,144.554 141.5,144.5 Z"/></g>
<g><path style="opacity:0.039" fill="#dcdcdc" d="M 128.5,147.5 C 131.167,148.833 133.833,148.833 136.5,147.5C 133.608,151.175 130.942,151.175 128.5,147.5 Z"/></g>
</svg>
